# xmcd
#
# Track frame offsets:
#	150
#	31967
#	67753
#	101662
#	135297
#	174527
#	242994
#
# Disc length: 3707 seconds
#
# Revision: 1
# Processed by: cddbd v1.5.2PL0 Copyright (c) Steve Scherf et al.
# Submitted via: audiograbber 1.83.01
#
DISCID=530e7907
DTITLE=Grateful Dead - 78-10-21 Winterland Arena, San Francisco CA
DYEAR=1900
DGENRE=
TTITLE0=Stagger Lee
TTITLE1=I Need A Miracle
TTITLE2=Bertha
TTITLE3=Good Lovin'
TTITLE4=It Must Have Been The Roses
TTITLE5=Estimated Prophet
TTITLE6=He's Gone
EXTD=
EXTT0=
EXTT1=
EXTT2=
EXTT3=
EXTT4=
EXTT5=
EXTT6=
PLAYORDER=
